<svg width="44" height="44" viewBox="0 0 44 44" fill="none" xmlns="http://www.w3.org/2000/svg">
<path fill-rule="evenodd" clip-rule="evenodd" d="M44 22C44 34.1503 34.1503 44 22 44C9.84974 44 0 34.1503 0 22C0 9.84974 9.84974 0 22 0C34.1503 0 44 9.84974 44 22ZM14.3 13.1C14.3 12.5477 14.7477 12.1 15.3 12.1H18.8C19.3523 12.1 19.8 12.5477 19.8 13.1V30.9C19.8 31.4523 19.3523 31.9 18.8 31.9H15.3C14.7477 31.9 14.3 31.4523 14.3 30.9V13.1ZM25.2 12.1C24.6477 12.1 24.2 12.5477 24.2 13.1V30.9C24.2 31.4523 24.6477 31.9 25.2 31.9H28.7C29.2523 31.9 29.7 31.4523 29.7 30.9V13.1C29.7 12.5477 29.2523 12.1 28.7 12.1H25.2Z" fill="white"/>
</svg>
